<?xml version="1.0" encoding="UTF-8"?>
<svg width="20px" height="20px" viewBox="0 0 20 20" version="1.1" xmlns="http://www.w3.org/2000/svg" xmlns:xlink="http://www.w3.org/1999/xlink">
    <title>快速进入</title>
    <g id="20230330-定稿" stroke="none" stroke-width="1" fill="none" fill-rule="evenodd">
        <g id="20230403" transform="translate(-390.000000, -289.000000)">
            <g id="1" transform="translate(370.000000, 260.000000)">
                <g id="编组-17备份-2" transform="translate(20.000000, 26.000000)">
                    <g id="快速进入" transform="translate(10.000000, 13.000000) scale(-1, 1) translate(-10.000000, -13.000000) translate(0.000000, 3.000000)">
                        <rect id="矩形" fill-rule="nonzero" x="0" y="0" width="20" height="20"></rect>
                        <path d="M16.2666667,2.51428571 L5.75238094,2.51428571 L8.11428571,3.88571429 C8.4952381,4.11428571 8.72380953,4.4952381 8.72380951,5.02857143 L8.72380951,15.0857143 L16.2666667,15.0857143 C17.0285714,15.0857143 17.4857143,15.6190476 17.4857143,16.3047619 C17.4857143,16.9904762 16.952381,17.5238095 16.2666667,17.5238095 L8.8,17.5238095 L8.8,18.7428571 C8.8,19.5047619 8.26666667,19.9619048 7.58095237,19.9619048 C7.35238094,19.9619048 7.04761904,19.8095238 6.97142857,19.7333333 L0.723809509,16 L0.342857143,15.6190476 L0.342857143,15.4666667 C0.190476183,15.3142857 0.114285714,15.2380952 0.114285714,14.9333333 L0.114285714,1.2952381 C0.114285714,0.761904777 0.495238103,0.30476192 0.876190469,0.15238096 C0.876190469,0 1.1047619,0 1.25714286,0 L16.3428571,0 C17.1047619,0 17.5619048,0.533333326 17.5619048,1.21904761 C17.5619048,1.9047619 17.0285714,2.51428571 16.2666667,2.51428571 Z" id="形状" fill="#1CB278"></path>
                        <path d="M11.2380952,8.83809525 C11.2380952,8.45714286 11.3904762,8.22857143 11.6190476,7.92380953 L14.1333333,5.40952382 C14.3619048,5.18095239 14.6666667,5.02857143 15.047619,5.02857143 C15.8095238,5.02857143 16.2666667,5.56190475 16.2666667,6.24761904 C16.2666667,6.62857143 16.1142857,6.85714286 15.8857143,7.16190475 L15.5047619,7.54285714 L18.7809524,7.54285714 C19.5428571,7.54285714 20,8.07619047 20,8.76190475 C20,9.44761904 19.5428571,10.0571429 18.7809524,10.0571429 L15.5047619,10.0571429 L15.8857143,10.4380952 C16.1142857,10.6666667 16.2666667,10.9714286 16.2666667,11.352381 C16.2666667,12.1142857 15.7333333,12.5714286 15.047619,12.5714286 C14.6666667,12.5714286 14.4380952,12.4190476 14.1333333,12.1904762 L11.6190476,9.67619047 C11.3904762,9.44761904 11.2380952,9.14285714 11.2380952,8.83809525 Z" id="路径" fill="#1CB278" opacity="0.5"></path>
                    </g>
                </g>
            </g>
        </g>
    </g>
</svg>