<?xml version="1.0" encoding="UTF-8"?>
<svg width="20px" height="20px" viewBox="0 0 20 20" version="1.1" xmlns="http://www.w3.org/2000/svg" xmlns:xlink="http://www.w3.org/1999/xlink">
    <title>考研日程</title>
    <g id="20230330-定稿" stroke="none" stroke-width="1" fill="none" fill-rule="evenodd">
        <g id="20230403" transform="translate(-1323.000000, -289.000000)">
            <g id="1" transform="translate(370.000000, 260.000000)">
                <g id="编组-23备份-3" transform="translate(953.000000, 26.000000)">
                    <g id="考研日程" transform="translate(0.000000, 3.000000)">
                        <rect id="矩形" x="0" y="0" width="20" height="20"></rect>
                        <path d="M0.110379747,7.73300798 L19.8896203,7.73300798 L19.8896203,15.4241472 C19.8896203,17.8514037 17.9219401,19.8190839 15.4946835,19.8190839 L4.50531646,19.8190839 C2.07805993,19.8190839 0.110379747,17.8514037 0.110379747,15.4241472 L0.110379747,7.73300798 Z M9.48962025,13.9487042 L7.93620253,12.3942738 C7.50695843,11.9650297 6.81101625,11.9650297 6.38177215,12.3942738 C5.95252806,12.8235179 5.95252806,13.5194601 6.38177215,13.9487042 L8.71291139,16.2798434 C8.91854955,16.4865124 9.19807416,16.6027049 9.48962025,16.6027049 C9.78116634,16.6027049 10.060691,16.4865124 10.2663291,16.2798434 L14.1518987,12.3942738 C14.4293901,12.1166016 14.5376663,11.711982 14.4359408,11.3328313 C14.3342152,10.9536806 14.0379425,10.6576008 13.6587256,10.5561224 C13.2795087,10.454644 12.8749597,10.5631838 12.5974684,10.8408561 L9.48962025,13.9487042 L9.48962025,13.9487042 Z" id="形状" fill="#1CB278"></path>
                        <path d="M13.2962025,2.23832444 L13.2962025,1.68946368 C13.2813646,1.09091398 13.5922053,0.531370532 14.1082329,0.227730228 C14.6242605,-0.0759100759 15.2643471,-0.0759100759 15.7803747,0.227730228 C16.2964023,0.531370532 16.607243,1.09091398 16.5924051,1.68946368 L16.5924051,2.23832444 C17.4669633,2.23805572 18.305779,2.5853536 18.924185,3.20375965 C19.5425911,3.82216571 19.889889,4.66098144 19.8896204,5.53553963 L0.110379591,5.53553963 C0.110111024,4.66098144 0.457408904,3.82216571 1.07581496,3.20375965 C1.69422102,2.5853536 2.53303675,2.23805572 3.40759494,2.23832444 L3.40759494,1.68946368 C3.39275702,1.09091398 3.70359774,0.531370532 4.21962533,0.227730228 C4.73565291,-0.0759100759 5.37573949,-0.0759100759 5.89176708,0.227730228 C6.40779466,0.531370532 6.71863539,1.09091398 6.70379747,1.68946368 L6.70379747,2.23832444 L13.2962025,2.23832444 Z" id="路径" fill="#1CB278" opacity="0.500186012"></path>
                    </g>
                </g>
            </g>
        </g>
    </g>
</svg>