<?xml version="1.0" standalone="no"?><!DOCTYPE svg PUBLIC "-//W3C//DTD SVG 1.1//EN" "http://www.w3.org/Graphics/SVG/1.1/DTD/svg11.dtd"><svg t="1699355923020" class="icon" viewBox="0 0 1024 1024" version="1.1" xmlns="http://www.w3.org/2000/svg" p-id="17304" xmlns:xlink="http://www.w3.org/1999/xlink" width="200" height="200"><path d="M480 535.338667c142.933333 0 260.266667-113.066667 260.266667-251.733334s-115.2-249.6-260.266667-249.6c-142.933333 0-260.266667 113.066667-260.266667 251.733334 2.133333 136.533333 117.333333 249.6 260.266667 249.6z m-98.133333 44.8c-183.466667 0-317.866667 121.6-317.866667 296.533333v19.2c0 91.733333 145.066667 91.733333 328.533333 91.733333h185.6c-78.933333-49.066667-130.133333-132.266667-130.133333-226.133333 0-66.133333 25.6-128 68.266667-177.066667l-134.4-4.266666z m345.6 409.6c32 0 61.866667-6.4 91.733333-17.066667 27.733333-10.666667 53.333333-27.733333 74.666667-46.933333 21.333333-19.2 38.4-44.8 49.066666-72.533334 12.8-27.733333 19.2-55.466667 19.2-87.466666s-6.4-59.733333-19.2-87.466667c-12.8-27.733333-27.733333-51.2-49.066666-70.4-21.333333-21.333333-46.933333-36.266667-74.666667-46.933333-27.733333-12.8-57.6-17.066667-91.733333-17.066667-32 0-61.866667 6.4-91.733334 17.066667-27.733333 10.666667-53.333333 27.733333-74.666666 46.933333-21.333333 19.2-38.4 44.8-49.066667 70.4-10.666667 25.6-19.2 55.466667-19.2 85.333333s6.4 59.733333 19.2 87.466667c12.8 27.733333 27.733333 51.2 49.066667 72.533333 21.333333 21.333333 46.933333 36.266667 74.666666 46.933334 29.866667 12.8 61.866667 19.2 91.733334 19.2z m115.2-262.4c21.333333 0 38.4 17.066667 38.4 38.4 0 10.666667-4.266667 19.2-10.666667 23.466666-8.533333 6.4-17.066667 8.533333-27.733333 8.533334v-2.133334h-85.333334v76.8c0 10.666667-2.133333 19.2-10.666666 27.733334-6.4 6.4-14.933333 10.666667-27.733334 10.666666-10.666667 0-19.2-4.266667-25.6-10.666666-6.4-8.533333-10.666667-17.066667-10.666666-27.733334v-76.8h-74.666667c-10.666667 0-19.2-2.133333-27.733333-8.533333-8.533333-4.266667-10.666667-12.8-10.666667-23.466667 0-8.533333 4.266667-19.2 10.666667-25.6 8.533333-6.4 17.066667-10.666667 27.733333-10.666666H682.666667v-74.666667c0-10.666667 4.266667-19.2 10.666666-25.6 6.4-6.4 14.933333-10.666667 25.6-10.666667s19.2 4.266667 27.733334 10.666667c6.4 6.4 10.666667 17.066667 10.666666 25.6v74.666667h85.333334z" fill="#ba9562" p-id="17305" data-spm-anchor-id="a313x.search_index.0.i22.72cd3a8125Cvrz" class="selected"></path></svg>